<svg width="93" height="120" viewBox="0 0 93 120" fill="none" xmlns="http://www.w3.org/2000/svg">
<path d="M30.3135 18.9193C30.6607 17.9531 32.0186 17.7904 33.0066 18.1176C33.4129 18.2512 33.814 18.4414 34.2429 18.4602C35.0659 18.4842 35.7691 17.8606 36.5818 17.7287C37.7503 17.5368 38.8217 18.3797 39.6013 19.2585C40.3809 20.1374 41.1206 21.1601 42.2423 21.5353C44.5396 22.2994 46.8211 19.9421 49.2382 20.1254C50.5648 20.2265 51.7108 21.0882 52.605 22.0595C53.4992 23.0309 54.2354 24.1479 55.2252 25.025C56.0934 25.7959 57.1352 26.3561 58.1857 26.8752C58.7986 27.1784 59.4532 27.4782 60.1374 27.4337C60.9118 27.384 61.7626 26.9197 62.3947 27.3549C62.5936 27.5087 62.749 27.7105 62.8461 27.9407C63.624 29.5374 62.9972 31.6634 61.4744 32.6022C61.2087 32.765 60.8857 32.9448 60.8701 33.2583C60.8751 33.4048 60.9194 33.5473 60.9986 33.6712C61.2764 34.2023 61.589 34.7316 61.6932 35.3192C61.7973 35.9069 61.6567 36.5835 61.1722 36.9399C60.8559 37.1475 60.4803 37.249 60.1009 37.2294C58.3437 37.2208 56.8365 35.8589 55.0828 35.7544C54.8584 35.7291 54.6312 35.7634 54.4247 35.8537C54.0531 36.0439 53.9038 36.4842 53.7527 36.8679C52.9401 38.8706 50.9225 40.2634 48.7694 40.6454C46.6163 41.0274 44.3677 40.4895 42.4403 39.4685C42.2994 39.402 42.1699 39.3141 42.0565 39.2081C41.8956 39.0153 41.7821 38.7884 41.7249 38.5451C41.1345 36.7035 40.3358 34.7762 38.7001 33.7123C37.6392 33.0271 36.1998 32.6416 35.7188 31.4852C35.4167 30.7537 35.6059 29.9228 35.5295 29.1348C35.4543 28.4592 35.1875 27.8181 34.7596 27.2854C34.3317 26.7527 33.7602 26.3498 33.1108 26.1231C32.826 26.0289 32.5135 25.9621 32.3051 25.7479C32.1359 25.5377 32.0279 25.286 31.9925 25.0198C31.7338 23.86 31.5619 22.6351 31.2008 21.5028C30.9247 20.6154 29.9436 19.9352 30.3135 18.9193Z" fill="#663D5B"/>
<g opacity="0.1">
<path d="M61.3755 36.407C61.0581 36.6117 60.6827 36.7108 60.3041 36.6897C58.5487 36.6897 57.0415 35.3192 55.2878 35.2164C55.0635 35.1904 54.8363 35.2242 54.6297 35.314C54.2563 35.5042 54.1088 35.9445 53.9577 36.3282C53.1451 38.3326 51.1257 39.7254 48.9726 40.1074C46.8195 40.4894 44.5709 39.9515 42.6452 38.9305C42.5044 38.8638 42.375 38.7759 42.2615 38.6701C42.1009 38.4771 41.9874 38.2502 41.9299 38.0071C41.3395 36.1638 40.5408 34.2382 38.9051 33.1726C37.8424 32.4788 36.403 32.1036 35.9238 30.9455C35.6199 30.2123 35.8091 29.3814 35.7345 28.5951C35.6595 27.9191 35.3926 27.2778 34.9643 26.7449C34.5361 26.2121 33.964 25.8095 33.314 25.5834C33.0292 25.4892 32.7167 25.4206 32.5083 25.2082C32.3389 24.9976 32.2314 24.7452 32.1975 24.4784C31.937 23.3203 31.7669 22.0937 31.4057 20.9631C31.1626 20.2058 30.3969 19.5925 30.4351 18.7839C30.4126 18.8266 30.3929 18.8707 30.376 18.9158C30.0045 19.9317 30.9872 20.6119 31.2668 21.4856C31.628 22.6162 31.7981 23.8428 32.0586 25.0009C32.0925 25.2677 32.2 25.5201 32.3694 25.7307C32.5778 25.9432 32.8903 26.0117 33.1751 26.1059C33.8253 26.3321 34.3976 26.735 34.8258 27.2682C35.2541 27.8013 35.5209 28.443 35.5956 29.1193C35.6702 29.9056 35.481 30.7365 35.7848 31.4697C36.2641 32.633 37.7035 33.0116 38.7662 33.6968C40.3984 34.7641 41.1971 36.688 41.7909 38.5313C41.8485 38.7745 41.962 39.0013 42.1226 39.1943C42.2361 39.3002 42.3655 39.388 42.5063 39.4547C44.432 40.4826 46.6736 41.0119 48.8337 40.6316C50.9937 40.2513 53.001 38.8568 53.8188 36.8524C53.9751 36.4687 54.1192 36.0284 54.4908 35.8383C54.6974 35.7484 54.9246 35.7147 55.1488 35.7406C56.9026 35.8451 58.4097 37.2071 60.1652 37.2139C60.5443 37.2335 60.9198 37.1326 61.2366 36.9261C61.3935 36.8006 61.5226 36.6446 61.6158 36.4677C61.709 36.2909 61.7643 36.097 61.7783 35.8982C61.6906 36.0992 61.5518 36.2744 61.3755 36.407Z" fill="black"/>
<path d="M61.6777 32.0642C61.412 32.2355 61.0873 32.4068 61.0717 32.7203C61.0702 32.7832 61.0802 32.8459 61.1012 32.9053C61.2332 32.7821 61.3801 32.6757 61.5388 32.5884C61.9683 32.3108 62.3353 31.949 62.617 31.5255C62.8987 31.102 63.089 30.6258 63.1762 30.1266C62.9195 30.9243 62.3897 31.6092 61.6777 32.0642Z" fill="black"/>
</g>
<path d="M34.8577 103.502C34.0537 105.366 34.8803 107.12 35.2484 108.278C35.6165 109.436 34.3593 110.226 33.2307 110.505C32.1021 110.785 29.2371 113.824 29.2371 113.824C29.2371 113.824 25.7643 115.943 24.5697 115.708C23.3751 115.474 25.8928 113.01 25.8928 113.01L28.9106 107.634C28.954 107.079 29.8865 104.722 29.8865 104.722L31.6124 96.1219L31.8416 94.9793L37.9606 94.6144C37.9606 94.6144 37.6393 95.5943 37.1966 96.9186C36.4517 99.1456 35.3612 102.339 34.8577 103.502Z" fill="#CC818C"/>
<path d="M83.6931 73.4418C83.4761 73.8495 80.9809 74.3412 80.9809 74.3412L79.3088 74.6615C79.3088 74.6615 76.574 75.9909 74.5772 75.9909L63.8221 77.6338L62.3792 77.8548V71.8348C62.3792 71.8348 63.1049 71.9102 64.1329 72.0061C66.4301 72.2049 70.231 72.4687 70.7571 72.0987C71.5177 71.5642 72.016 69.5084 73.2957 69.7448C74.5754 69.9812 76.0965 71.7149 76.0965 71.7149C76.0965 71.7149 77.8763 72.5492 79.6126 72.1209C81.349 71.6926 83.9101 73.034 83.6931 73.4418Z" fill="#CC818C"/>
<path opacity="0.1" d="M64.2023 77.1679C64.2023 77.1679 64.0478 77.3392 63.8221 77.6321L62.3792 77.8531V71.8348C62.3792 71.8348 63.1049 71.9102 64.1329 72.0062C65.8588 73.351 64.2023 77.1679 64.2023 77.1679Z" fill="black"/>
<path d="M43.4319 75.7768L49.2088 80.5324C50.1111 81.2745 51.231 81.7111 52.4037 81.7779C54.1991 81.8824 57.0016 82.1376 59.0366 82.7578L59.884 79.2664C59.884 79.2664 62.3149 79.3521 62.8358 78.5383C63.1418 78.0579 63.4824 77.5999 63.8551 77.1678C63.8551 77.1678 65.614 73.1214 63.6172 71.8794C63.6172 71.8794 61.4033 71.2147 60.9467 70.6151C60.49 70.0155 57.4097 68.9242 56.4547 68.9876C55.4997 69.051 52.6781 69.2017 52.6781 69.2017C52.6781 69.2017 51.5703 67.9597 51.0719 68.0882C50.5736 68.2167 48.8355 68.0882 48.8355 68.0882C48.8355 68.0882 48.358 66.877 47.8805 65.1416C47.403 63.4062 44.5605 62.786 44.5605 62.786L43.4319 75.7768Z" fill="#673AB7"/>
<path opacity="0.1" d="M43.4319 75.7768L49.2088 80.5324C50.1111 81.2745 51.231 81.7111 52.4037 81.7779C54.1991 81.8824 57.0016 82.1376 59.0366 82.7578L59.884 79.2664C59.884 79.2664 62.3149 79.3521 62.8358 78.5383C63.1418 78.0579 63.4824 77.5999 63.8551 77.1678C63.8551 77.1678 65.614 73.1214 63.6172 71.8794C63.6172 71.8794 61.4033 71.2147 60.9467 70.6151C60.49 70.0155 57.4097 68.9242 56.4547 68.9876C55.4997 69.051 52.6781 69.2017 52.6781 69.2017C52.6781 69.2017 51.5703 67.9597 51.0719 68.0882C50.5736 68.2167 48.8355 68.0882 48.8355 68.0882C48.8355 68.0882 48.358 66.877 47.8805 65.1416C47.403 63.4062 44.5605 62.786 44.5605 62.786L43.4319 75.7768Z" fill="black"/>
<path d="M40.8481 33.14L40.2091 33.2582H40.1692L40.0754 33.2754L38.9815 33.4758L38.6446 33.8698L38.6308 33.8835L37.549 35.1478L36.6374 36.0301L36.6287 36.0404L35.8578 36.7805L34.5538 38.0602L34.335 38.593L33.8592 39.7733L33.7359 40.0731L32.4337 41.4436L31.6019 43.1996L29.6572 44.3131L27.5649 43.2424L26.6099 41.8719L26.8269 39.9087L26.8703 39.5163L27.5076 38.5073L28.0858 37.5891L29.2144 36.0044L31.3849 34.5482L31.7738 34.4472L32.2097 34.3341C32.243 34.2872 32.2737 34.2386 32.3017 34.1885C32.3384 34.1282 32.3715 34.0659 32.4007 34.0017C32.8886 32.9636 32.7167 31.42 32.3868 30.0512C32.1339 29.0273 31.7989 28.0248 31.3849 27.0532L37.1149 26.2395C37.1149 26.2395 37.0593 27.3359 37.0593 29.0456C37.0593 29.4739 37.0593 29.9382 37.0715 30.435C37.0993 31.9768 38.5509 32.6449 39.6465 32.9293C39.9287 33.0035 40.2151 33.0607 40.5043 33.1006C40.7161 33.1332 40.8481 33.14 40.8481 33.14Z" fill="#CC818C"/>
<path d="M31.8189 33.9486C31.8189 33.9486 32.0794 32.9208 29.9957 30.3082C27.9121 27.6957 27.5214 23.37 27.5214 23.37C27.5214 23.37 27.0005 21.1429 27.5214 20.5005C28.0423 19.8581 28.9105 12.7914 28.9105 12.7914L30.343 8.8083C30.343 8.8083 37.3319 1.78442 34.4235 0.927848C32.4475 0.34538 30.0825 3.34509 28.782 5.32548C28.1396 6.29864 27.7244 7.40048 27.5665 8.55133L23.6146 19.2156C23.6146 19.2156 23.2239 20.5005 23.6146 22.7276C24.0052 24.9547 24.8734 28.8949 24.8734 28.8949L27.0873 34.4249C27.0873 34.4249 28.2524 37.8683 27.6481 38.288L28.9973 36.3196L31.8189 33.9486Z" fill="#CC818C"/>
<path d="M66.4161 43.8043C66.4161 43.8043 65.6347 45.8601 64.0286 45.6888C62.4224 45.5175 54.6956 43.3332 54.6956 43.3332C54.6956 43.3332 51.4833 41.7485 50.2244 41.7914C48.9655 41.8342 43.1921 39.1788 43.1921 39.1788C43.1921 39.1788 42.7858 39.7065 42.3326 40.2615C41.8395 40.8697 41.2908 41.5121 41.1519 41.5344C40.8914 41.5772 36.8544 42.134 36.8544 42.134L34.1196 40.892L33.8591 39.7733L33.7358 39.2594L34.3418 38.5929L35.1388 37.7175L36.6338 36.0352L36.6425 36.0249L38.6376 33.8852L38.6515 33.8715L39.9295 33.3576L40.176 33.2582H40.216C40.3688 33.2325 40.9557 33.1794 41.7422 33.618C42.29 33.924 42.8983 34.1098 43.5255 34.1628C44.7739 34.2506 45.9561 34.7502 46.8819 35.5812L53.3065 38.9167L63.4208 42.5143C63.4208 42.5143 64.289 37.589 65.7649 38.6598C67.2408 39.7305 66.4161 43.8043 66.4161 43.8043Z" fill="#CC818C"/>
<path opacity="0.1" d="M42.3327 40.2616C41.8396 40.8698 41.2909 41.5122 41.152 41.5345C40.8915 41.5773 36.8545 42.1341 36.8545 42.1341L34.1197 40.8921L33.8592 39.7734L33.7359 40.0732L32.4337 41.4437L31.6019 43.1997L29.6572 44.3132L27.5649 43.2425L26.6099 41.872L26.8269 39.9087C26.9363 39.6757 27.235 39.0419 27.5076 38.5074C27.6364 38.2129 27.7983 37.9336 27.9903 37.6748C28.1639 37.5617 28.3462 36.3471 28.3462 36.3471C29.1345 34.1046 31.7756 33.7603 31.7756 33.7603L32.1975 34.1509L32.3816 34.3393C32.3069 34.3273 32.3954 34.168 32.2999 34.1937C32.1471 34.2365 32.0794 34.4644 31.8832 34.5894C30.8154 35.2747 29.1467 36.873 28.4869 37.632C28.3271 37.8153 28.1622 37.9952 27.9938 38.1699C27.0405 39.1652 27.2159 40.4843 27.2159 40.4843C26.978 41.5122 29.0825 42.2831 29.0825 42.2831C29.6693 41.3204 33.6404 38.665 33.6404 38.665L36.3144 35.7098C37.134 34.3016 38.7454 33.3714 39.6448 32.9362C40.0424 32.7444 40.3029 32.6484 40.3029 32.6484L41.303 33.0699C41.039 33.0001 40.7595 33.012 40.5026 33.1041C40.355 33.1492 40.2115 33.2065 40.0737 33.2754C40.0216 33.3011 39.9695 33.3286 39.9209 33.3577C39.6474 33.5144 39.3903 33.6974 39.1534 33.9042L36.9065 36.3248C35.1893 38.1733 36.4829 41.1627 39.0232 41.2056H39.0457C40.5981 41.5585 41.7111 40.8492 42.3327 40.2616Z" fill="black"/>
<path opacity="0.1" d="M37.9605 94.6196C37.9605 94.6196 37.6392 95.5995 37.1965 96.9238C35.4983 97.0489 32.6941 96.4013 31.6123 96.1272L31.8415 94.9845L37.9605 94.6196Z" fill="black"/>
<path d="M32.3834 34.3392L31.8278 33.7773C31.8278 33.7773 29.8223 34.048 28.5773 36.162C28.5773 36.162 27.9956 37.7467 27.8168 37.8597C27.6379 37.9728 26.61 40.1879 26.61 40.1879C26.61 40.1879 25.3806 43.7701 26.4068 45.9698C27.433 48.1694 27.4782 49.1819 27.4782 49.1819L28.2457 52.4369L28.5634 55.291L31.3208 62.015L33.8593 65.5835C33.8593 65.5835 33.6215 68.2166 33.1005 68.5815C32.5796 68.9464 32.8175 70.8292 32.8175 70.8292L32.4928 75.7767C32.4928 75.7767 31.4718 77.2534 31.4076 79.6518C31.3433 82.0502 30.9735 82.7355 30.9735 82.7355C30.9735 82.7355 30.7998 84.7484 31.2774 85.6701C31.7549 86.5918 30.5168 87.5545 30.5168 87.5545L31.5812 91.1299L31.168 95.6697C31.168 95.6697 36.0732 97.0196 37.8964 96.4629C39.7196 95.9061 40.6746 96.2916 40.6746 96.2916L43.9303 83.2871L45.0589 73.0734C45.0589 73.0734 45.1249 65.8353 46.1007 63.6288C46.9377 61.7444 45.8403 55.0306 42.0706 53.7628C41.2841 53.499 40.8847 52.6185 40.2127 52.1354C39.6119 51.7054 38.6309 50.6895 39.1119 48.853C39.7856 46.2833 41.4785 42.2368 41.4785 42.2368L42.7322 39.7733C42.7322 39.7733 41.3691 41.949 38.874 41.3922H38.8514C36.3111 41.3477 35.0175 38.3583 36.7348 36.5115L38.9816 34.0891C38.9816 34.0891 40.2197 32.9636 41.1313 33.248L40.1328 32.8265C40.1328 32.8265 37.3217 33.8544 36.1392 35.8879L33.4652 38.8431C33.4652 38.8431 29.4976 41.4865 28.9107 42.4561C28.9107 42.4561 26.8062 41.6852 27.0441 40.6573C27.0441 40.6573 26.8704 39.3365 27.822 38.3411C27.9956 38.1698 28.1554 37.9882 28.3151 37.8049C29.1711 36.8182 31.5378 34.2005 32.3834 34.3392Z" fill="#673AB7"/>
<path opacity="0.1" d="M32.7097 51.9846C32.7097 51.9846 32.0794 56.5039 32.5569 57.4238L32.7097 51.9846Z" fill="black"/>
<path opacity="0.1" d="M33.1213 53.7406L33.795 56.3326C33.795 56.3326 34.0329 54.7479 33.1213 53.7406Z" fill="black"/>
<path opacity="0.1" d="M29.1277 53.1359C29.1277 53.1359 30.4734 59.7315 31.9493 61.7238L29.1277 53.1359Z" fill="black"/>
<path opacity="0.1" d="M38.6133 61.0865C38.6133 61.0865 36.3126 63.228 35.4219 63.0721C35.4219 63.0721 38.9606 63.2228 40.0667 61.3812C40.0667 61.3863 39.3513 60.8724 38.6133 61.0865Z" fill="black"/>
<path opacity="0.1" d="M41.8031 60.9153C41.8031 60.9153 38.8513 63.0344 38.2661 63.228C38.2661 63.228 41.4558 62.3286 41.8031 60.9153Z" fill="black"/>
<path opacity="0.1" d="M31.8189 45.1748C31.8189 45.1748 30.3429 47.0387 29.605 46.8246C29.605 46.8246 31.4073 46.8879 31.8189 45.1748Z" fill="black"/>
<path opacity="0.1" d="M33.4912 47.5732C33.4912 47.5732 36.7035 43.2698 38.2228 43.4411C38.2228 43.4411 34.5764 46.5676 33.4912 47.5732Z" fill="black"/>
<path opacity="0.1" d="M37.9397 46.0074C37.9397 46.0074 35.8995 47.0165 36.1165 47.3111C36.3336 47.6058 37.9397 46.0074 37.9397 46.0074Z" fill="black"/>
<path opacity="0.1" d="M39.4155 79.0522C39.4155 79.0522 32.6002 82.9719 31.9717 83.1638C31.9717 83.1638 33.1437 84.0426 34.2498 83.6143C35.3559 83.186 39.4155 79.0522 39.4155 79.0522Z" fill="black"/>
<path opacity="0.1" d="M33.7081 87.212C33.7081 87.212 30.9733 86.9327 31.081 87.8116C31.1886 88.6904 33.7081 87.212 33.7081 87.212Z" fill="black"/>
<path opacity="0.1" d="M37.1148 26.2395C37.1148 26.2395 37.0592 27.3359 37.0592 29.0456C36.4163 29.5655 35.6576 29.9275 34.8453 30.102C34.0331 30.2765 33.1905 30.2585 32.3866 30.0495C32.1338 29.0256 31.7988 28.0231 31.3848 27.0515L37.1148 26.2395Z" fill="black"/>
<path d="M33.7291 29.8868C36.63 29.8868 38.9816 27.5667 38.9816 24.7046C38.9816 21.8425 36.63 19.5223 33.7291 19.5223C30.8282 19.5223 28.4766 21.8425 28.4766 24.7046C28.4766 27.5667 30.8282 29.8868 33.7291 29.8868Z" fill="#CC818C"/>
<path opacity="0.1" d="M35.106 27.867C35.2536 29.9862 35.7051 32.4103 37.5699 33.4759C38.9174 34.2451 40.6155 34.0429 42.1071 33.6044C43.5986 33.1658 45.0589 32.5114 46.6112 32.4377C47.8041 32.3812 48.9831 32.6707 50.1725 32.7444C51.3619 32.818 52.6642 32.6347 53.5133 31.809C54.7288 30.6338 54.5065 28.4975 53.3553 27.2623C52.2041 26.0271 50.4035 25.5783 48.6983 25.6245C46.6147 25.6811 44.288 26.3098 42.6401 25.0626C41.5341 24.2232 41.1156 22.767 40.1849 21.7408C38.6309 20.0277 31.7583 17.5539 30.3032 20.3464C29.6208 21.6535 32.722 22.5871 33.4408 23.5328C34.5764 25.0249 34.9706 25.9106 35.106 27.867Z" fill="black"/>
<path d="M35.2674 27.6837C35.4167 29.8046 35.8664 32.2287 37.7313 33.2926C39.0787 34.0618 40.7769 33.8596 42.2684 33.4228C43.76 32.9859 45.2203 32.3298 46.7743 32.2561C47.9655 32.1996 49.1445 32.4874 50.3356 32.5628C51.5268 32.6382 52.8256 32.4531 53.6747 31.6274C54.8901 30.4505 54.6679 28.3159 53.5167 27.0807C52.3654 25.8455 50.5648 25.3967 48.8614 25.443C46.7778 25.4978 44.4493 26.1282 42.8015 24.8793C41.6954 24.0399 41.277 22.5854 40.3463 21.5576C38.7922 19.8444 31.9197 17.3724 30.4646 20.1648C29.7822 21.4702 32.8834 22.4039 33.604 23.3512C34.7378 24.8417 35.132 25.7256 35.2674 27.6837Z" fill="#663D5B"/>
<path opacity="0.1" d="M28.9504 42.2814C29.031 41.6053 29.2569 40.9539 29.6129 40.3707C29.9689 39.7876 30.4469 39.2861 31.015 38.8997" fill="black"/>
<path opacity="0.1" d="M48.6445 69.1161C48.6284 69.284 48.5868 69.4485 48.5212 69.6043C48.2937 70.2769 48.0199 70.9334 47.7017 71.5693C48.1653 71.5299 48.5473 71.1701 48.7435 70.7555C48.9149 70.329 49.0095 69.8762 49.023 69.4176C49.0401 69.2743 49.0442 69.1298 49.0352 68.9859C49.023 68.8522 48.9362 68.3417 48.7122 68.4325C48.5316 68.5079 48.648 68.9807 48.6445 69.1161Z" fill="black"/>
<path opacity="0.1" d="M53.9872 31.0911C53.1364 31.9168 51.8376 32.1018 50.6464 32.0265C49.4553 31.9511 48.2711 31.6633 47.0851 31.7215C45.5224 31.7952 44.0743 32.4496 42.581 32.8882C41.0877 33.3267 39.3913 33.5289 38.0421 32.7597C36.179 31.6941 35.7275 29.27 35.5799 27.1509C35.4445 25.1945 35.0486 24.3088 33.9148 22.8166C33.2289 21.9138 30.3813 21.023 30.7077 19.8101C30.6133 19.9194 30.5318 20.039 30.4646 20.1664C29.7822 21.4718 32.8834 22.4055 33.604 23.3528C34.7378 24.8433 35.132 25.7307 35.2674 27.6854C35.4167 29.8062 35.8664 32.2303 37.7313 33.2942C39.0787 34.0634 40.7769 33.8612 42.2684 33.4244C43.76 32.9875 45.2203 32.3314 46.7743 32.2577C47.9655 32.2012 49.1445 32.489 50.3356 32.5644C51.5268 32.6398 52.8256 32.4548 53.6747 31.629C53.9158 31.3929 54.1076 31.1124 54.239 30.8033C54.1627 30.9055 54.0785 31.0017 53.9872 31.0911Z" fill="black"/>
<path d="M28.5738 46.6687L27.9365 48.0392L29.9629 47.64L28.5738 46.6687Z" fill="#673AB7"/>
<path opacity="0.1" d="M28.5738 46.6687L28.0494 48.0392H27.9365L28.5738 46.6687Z" fill="black"/>
</svg>
