<svg width="355" height="40" viewBox="0 0 355 40" fill="none" xmlns="http://www.w3.org/2000/svg">
<path d="M270.5 19.2817L271.51 22.3912H274.78L272.135 24.3129L273.145 27.4223L270.5 25.5006L267.855 27.4223L268.865 24.3129L266.22 22.3912H269.49L270.5 19.2817Z" fill="#FAF3DD"/>
<path d="M248.5 0.281738L249.51 3.39116H252.78L250.135 5.31289L251.145 8.42231L248.5 6.50059L245.855 8.42231L246.865 5.31289L244.22 3.39116H247.49L248.5 0.281738Z" fill="#FAF3DD"/>
<path d="M299.5 20.2817L300.51 23.3912H303.78L301.135 25.3129L302.145 28.4223L299.5 26.5006L296.855 28.4223L297.865 25.3129L295.22 23.3912H298.49L299.5 20.2817Z" fill="#FAF3DD"/>
<path d="M334.5 24.2817L335.51 27.3912H338.78L336.135 29.3129L337.145 32.4223L334.5 30.5006L331.855 32.4223L332.865 29.3129L330.22 27.3912H333.49L334.5 24.2817Z" fill="#FAF3DD"/>
<path d="M350.5 7.28174L351.51 10.3912H354.78L352.135 12.3129L353.145 15.4223L350.5 13.5006L347.855 15.4223L348.865 12.3129L346.22 10.3912H349.49L350.5 7.28174Z" fill="#FAF3DD"/>
<path d="M308.5 1.28174L309.51 4.39116H312.78L310.135 6.31289L311.145 9.42231L308.5 7.50059L305.855 9.42231L306.865 6.31289L304.22 4.39116H307.49L308.5 1.28174Z" fill="#FAF3DD"/>
<path d="M230.158 14.1531L230.547 17.3993L233.754 18.0324L230.787 19.4056L231.176 22.6518L228.953 20.2542L225.986 21.6274L227.58 18.7725L225.357 16.375L228.564 17.008L230.158 14.1531Z" fill="#FAF3DD"/>
<path d="M34.1575 10.1531L34.5466 13.3993L37.7542 14.0324L34.7871 15.4056L35.1762 18.6518L32.9533 16.2542L29.9862 17.6274L31.5795 14.7725L29.3567 12.375L32.5642 13.008L34.1575 10.1531Z" fill="#FAF3DD"/>
<path d="M25.1575 24.1531L25.5466 27.3993L28.7542 28.0324L25.7871 29.4056L26.1762 32.6518L23.9533 30.2542L20.9862 31.6274L22.5795 28.7725L20.3567 26.375L23.5642 27.008L25.1575 24.1531Z" fill="#FAF3DD"/>
<path d="M6.15751 9.15309L6.54661 12.3993L9.75417 13.0324L6.78709 14.4056L7.17619 17.6518L4.95333 15.2542L1.98624 16.6274L3.57952 13.7725L1.35666 11.375L4.56423 12.008L6.15751 9.15309Z" fill="#FAF3DD"/>
<path d="M98.1575 7.15309L98.5466 10.3993L101.754 11.0324L98.7871 12.4056L99.1762 15.6518L96.9533 13.2542L93.9862 14.6274L95.5795 11.7725L93.3567 9.37496L96.5642 10.008L98.1575 7.15309Z" fill="#FAF3DD"/>
<path d="M120.158 28.1531L120.547 31.3993L123.754 32.0324L120.787 33.4056L121.176 36.6518L118.953 34.2542L115.986 35.6274L117.58 32.7725L115.357 30.375L118.564 31.008L120.158 28.1531Z" fill="#FAF3DD"/>
<path d="M142.158 9.15309L142.547 12.3993L145.754 13.0324L142.787 14.4056L143.176 17.6518L140.953 15.2542L137.986 16.6274L139.58 13.7725L137.357 11.375L140.564 12.008L142.158 9.15309Z" fill="#FAF3DD"/>
<path d="M166.158 23.1531L166.547 26.3993L169.754 27.0324L166.787 28.4056L167.176 31.6518L164.953 29.2542L161.986 30.6274L163.58 27.7725L161.357 25.375L164.564 26.008L166.158 23.1531Z" fill="#FAF3DD"/>
<path d="M206.158 25.1531L206.547 28.3993L209.754 29.0324L206.787 30.4056L207.176 33.6518L204.953 31.2542L201.986 32.6274L203.58 29.7725L201.357 27.375L204.564 28.008L206.158 25.1531Z" fill="#FAF3DD"/>
<path d="M180.158 4.15309L180.547 7.3993L183.754 8.03237L180.787 9.40556L181.176 12.6518L178.953 10.2542L175.986 11.6274L177.58 8.77249L175.357 6.37496L178.564 7.00803L180.158 4.15309Z" fill="#FAF3DD"/>
<path d="M59.1575 17.1531L59.5466 20.3993L62.7542 21.0324L59.7871 22.4056L60.1762 25.6518L57.9533 23.2542L54.9862 24.6274L56.5795 21.7725L54.3567 19.375L57.5642 20.008L59.1575 17.1531Z" fill="#FAF3DD"/>
<path d="M50.1575 1.15309L50.5466 4.3993L53.7542 5.03237L50.7871 6.40556L51.1762 9.65177L48.9533 7.25424L45.9862 8.62743L47.5795 5.77249L45.3567 3.37496L48.5642 4.00803L50.1575 1.15309Z" fill="#FAF3DD"/>
<path d="M87.1575 24.1531L87.5466 27.3993L90.7542 28.0324L87.7871 29.4056L88.1762 32.6518L85.9533 30.2542L82.9862 31.6274L84.5795 28.7725L82.3567 26.375L85.5642 27.008L87.1575 24.1531Z" fill="#FAF3DD"/>
</svg>
